G75*
%MOIN*%
%OFA0B0*%
%FSLAX24Y24*%
%IPPOS*%
%LPD*%
%AMOC8*
5,1,8,0,0,1.08239X$1,22.5*
%
%ADD10C,0.1340*%
%ADD11C,0.0820*%
%ADD12OC8,0.0820*%
%ADD13R,0.0820X0.0820*%
%ADD14C,0.0760*%
D10*
X005485Y025402D03*
X005485Y014402D03*
X046985Y019902D03*
X032985Y002402D03*
X032985Y037402D03*
D11*
X037985Y016902D03*
X036985Y016902D03*
X035985Y016902D03*
X034985Y016902D03*
X033985Y016902D03*
X032985Y016902D03*
X031985Y016902D03*
X030985Y016902D03*
X029985Y016902D03*
X028985Y016902D03*
X027985Y016902D03*
X026985Y016902D03*
X026985Y022902D03*
X027985Y022902D03*
X028985Y022902D03*
X029985Y022902D03*
X030985Y022902D03*
X031985Y022902D03*
X032985Y022902D03*
X033985Y022902D03*
X034985Y022902D03*
X035985Y022902D03*
X036985Y022902D03*
X037985Y022902D03*
X033535Y018052D03*
X034535Y018052D03*
X037985Y015652D03*
X036985Y015652D03*
X035985Y015652D03*
X034985Y015652D03*
X033985Y015652D03*
X032985Y015652D03*
X031985Y015652D03*
X030985Y015652D03*
X029985Y015652D03*
X028985Y015652D03*
X027985Y015652D03*
X026985Y015652D03*
X026985Y024152D03*
X027985Y024152D03*
X028985Y024152D03*
X029985Y024152D03*
X030985Y024152D03*
X031985Y024152D03*
X032985Y024152D03*
X033985Y024152D03*
X034985Y024152D03*
X035985Y024152D03*
X036985Y024152D03*
X037985Y024152D03*
X036485Y030902D03*
X036485Y029902D03*
X036485Y028902D03*
X036485Y009902D03*
X036485Y008902D03*
X036485Y007902D03*
X020485Y020402D03*
X020485Y019402D03*
X020485Y018402D03*
X024485Y030402D03*
X025485Y030402D03*
X007485Y022402D03*
X007485Y021402D03*
X007485Y020402D03*
X007485Y019402D03*
X007485Y018402D03*
X007485Y017402D03*
X007485Y016402D03*
X003485Y017402D03*
X003485Y018402D03*
X003485Y019402D03*
X003485Y020402D03*
X003485Y021402D03*
X003485Y022402D03*
X003485Y023402D03*
X019705Y035792D03*
X022265Y035792D03*
X019705Y034012D03*
X022265Y034012D03*
X019705Y032292D03*
X022265Y032292D03*
X019705Y030512D03*
X022265Y030512D03*
X022265Y007512D03*
X019705Y007512D03*
X022265Y009292D03*
X019705Y009292D03*
X022265Y004012D03*
X019705Y004012D03*
X022265Y005792D03*
X019705Y005792D03*
X015705Y035792D03*
X018265Y035792D03*
X015705Y034012D03*
X018265Y034012D03*
X015705Y032292D03*
X018265Y032292D03*
X015705Y030512D03*
X018265Y030512D03*
X018265Y007512D03*
X015705Y007512D03*
X018265Y009292D03*
X015705Y009292D03*
X018265Y004012D03*
X015705Y004012D03*
X018265Y005792D03*
X015705Y005792D03*
X011705Y035792D03*
X014265Y035792D03*
X011705Y034012D03*
X014265Y034012D03*
X011705Y032292D03*
X014265Y032292D03*
X011705Y030512D03*
X014265Y030512D03*
X014265Y007512D03*
X011705Y007512D03*
X014265Y009292D03*
X011705Y009292D03*
X014265Y004012D03*
X011705Y004012D03*
X014265Y005792D03*
X011705Y005792D03*
X007705Y032292D03*
X010265Y032292D03*
X007705Y030512D03*
X010265Y030512D03*
X010265Y007512D03*
X007705Y007512D03*
X010265Y009292D03*
X007705Y009292D03*
X003705Y028792D03*
X006265Y028792D03*
X003705Y027012D03*
X006265Y027012D03*
X006265Y011012D03*
X003705Y011012D03*
X006265Y012792D03*
X003705Y012792D03*
X024485Y009402D03*
X025485Y009402D03*
X016985Y022902D03*
X013985Y022902D03*
X013985Y024402D03*
X016985Y024402D03*
X016985Y025902D03*
X013985Y025902D03*
X013985Y021402D03*
X016985Y021402D03*
X016985Y019902D03*
X013985Y019902D03*
X013985Y018402D03*
X016985Y018402D03*
X013985Y015402D03*
X016985Y015402D03*
X016985Y016902D03*
X013985Y016902D03*
X018485Y018918D03*
X018485Y020886D03*
X008485Y022402D03*
X008485Y021402D03*
X008485Y020402D03*
X008485Y019402D03*
X008485Y018402D03*
X008485Y017402D03*
X008485Y016402D03*
X002485Y017402D03*
X002485Y018402D03*
X002485Y019402D03*
X002485Y020402D03*
X002485Y021402D03*
X002485Y022402D03*
X002485Y023402D03*
X016985Y013902D03*
X013985Y013902D03*
X012485Y018402D03*
X012485Y021402D03*
D12*
X042485Y027902D03*
X042485Y026902D03*
X041485Y027902D03*
X041485Y026902D03*
X040485Y027902D03*
X040485Y026902D03*
X039485Y027902D03*
X039485Y026902D03*
X042485Y012902D03*
X042485Y011902D03*
X041485Y012902D03*
X041485Y011902D03*
X040485Y012902D03*
X040485Y011902D03*
X039485Y012902D03*
X039485Y011902D03*
D13*
X036485Y031902D03*
X036485Y010902D03*
X020485Y021402D03*
X007485Y023402D03*
X003485Y016402D03*
X008485Y023402D03*
X002485Y016402D03*
D14*
X024985Y031902D03*
X024985Y035902D03*
X024985Y007902D03*
X024985Y003902D03*
M02*
