%
M48
M72
T01C0.0120
T02C0.0354
T03C0.0400
T04C0.0440
T05C0.1260
%
T01
X36335Y18052
X37735Y20902
X36985Y20602
X36235Y20302
X10835Y21752
X10835Y22352
X31985Y13402
X24785Y18052
X6635Y15752
X6385Y17202
X17285Y8452
X3185Y15452
X19135Y14002
X32585Y14052
X15885Y11202
X10835Y24252
X1635Y21252
X7085Y24552
X6635Y23652
X9335Y22102
X6335Y21752
X3835Y24252
X13685Y23502
X35485Y20002
X13635Y20502
X13385Y22602
X1035Y23602
X5785Y17502
X5535Y23002
X17835Y17002
X5735Y23652
X16435Y24752
X12185Y22452
X6085Y19802
X14735Y17652
X10485Y8352
X27535Y32452
T02
X16985Y22902
X13985Y22902
X13985Y24402
X16985Y24402
X16985Y25902
X13985Y25902
X13985Y21402
X16985Y21402
X16985Y19902
X13985Y19902
X13985Y18402
X16985Y18402
X13985Y15402
X16985Y15402
X16985Y16902
X13985Y16902
X18485Y18918
X18485Y20886
X16985Y13902
X13985Y13902
X12485Y18402
X12485Y21402
T03
X37985Y16902
X36985Y16902
X35985Y16902
X34985Y16902
X33985Y16902
X32985Y16902
X31985Y16902
X30985Y16902
X29985Y16902
X28985Y16902
X27985Y16902
X26985Y16902
X26985Y22902
X27985Y22902
X28985Y22902
X29985Y22902
X30985Y22902
X31985Y22902
X32985Y22902
X33985Y22902
X34985Y22902
X35985Y22902
X36985Y22902
X37985Y22902
X33535Y18052
X34535Y18052
X37985Y15652
X36985Y15652
X35985Y15652
X34985Y15652
X33985Y15652
X32985Y15652
X31985Y15652
X30985Y15652
X29985Y15652
X28985Y15652
X27985Y15652
X26985Y15652
X26985Y24152
X27985Y24152
X28985Y24152
X29985Y24152
X30985Y24152
X31985Y24152
X32985Y24152
X33985Y24152
X34985Y24152
X35985Y24152
X36985Y24152
X37985Y24152
X42485Y27902
X42485Y26902
X41485Y27902
X41485Y26902
X40485Y27902
X40485Y26902
X39485Y27902
X39485Y26902
X36485Y31902
X36485Y30902
X36485Y29902
X36485Y28902
X42485Y12902
X42485Y11902
X41485Y12902
X41485Y11902
X40485Y12902
X40485Y11902
X39485Y12902
X39485Y11902
X36485Y10902
X36485Y9902
X36485Y8902
X36485Y7902
X20485Y21402
X20485Y20402
X20485Y19402
X20485Y18402
X24485Y30402
X25485Y30402
X7485Y23402
X7485Y22402
X7485Y21402
X7485Y20402
X7485Y19402
X7485Y18402
X7485Y17402
X7485Y16402
X3485Y16402
X3485Y17402
X3485Y18402
X3485Y19402
X3485Y20402
X3485Y21402
X3485Y22402
X3485Y23402
X19705Y35792
X22265Y35792
X19705Y34012
X22265Y34012
X19705Y32292
X22265Y32292
X19705Y30512
X22265Y30512
X22265Y7512
X19705Y7512
X22265Y9292
X19705Y9292
X22265Y4012
X19705Y4012
X22265Y5792
X19705Y5792
X15705Y35792
X18265Y35792
X15705Y34012
X18265Y34012
X15705Y32292
X18265Y32292
X15705Y30512
X18265Y30512
X18265Y7512
X15705Y7512
X18265Y9292
X15705Y9292
X18265Y4012
X15705Y4012
X18265Y5792
X15705Y5792
X11705Y35792
X14265Y35792
X11705Y34012
X14265Y34012
X11705Y32292
X14265Y32292
X11705Y30512
X14265Y30512
X14265Y7512
X11705Y7512
X14265Y9292
X11705Y9292
X14265Y4012
X11705Y4012
X14265Y5792
X11705Y5792
X7705Y32292
X10265Y32292
X7705Y30512
X10265Y30512
X10265Y7512
X7705Y7512
X10265Y9292
X7705Y9292
X3705Y28792
X6265Y28792
X3705Y27012
X6265Y27012
X6265Y11012
X3705Y11012
X6265Y12792
X3705Y12792
X24485Y9402
X25485Y9402
X8485Y23402
X8485Y22402
X8485Y21402
X8485Y20402
X8485Y19402
X8485Y18402
X8485Y17402
X8485Y16402
X2485Y16402
X2485Y17402
X2485Y18402
X2485Y19402
X2485Y20402
X2485Y21402
X2485Y22402
X2485Y23402
T04
X24985Y31902
X24985Y35902
X24985Y7902
X24985Y3902
T05
X5485Y25402
X5485Y14402
X46985Y19902
X32985Y2402
X32985Y37402
M30
