G75*
%MOIN*%
%OFA0B0*%
%FSLAX24Y24*%
%IPPOS*%
%LPD*%
%AMOC8*
5,1,8,0,0,1.08239X$1,22.5*
%
%ADD10C,0.0100*%
%ADD11C,0.0000*%
D10*
X028635Y039627D02*
X028000Y039609D01*
X027365Y039590D01*
X026730Y039554D01*
X026096Y039517D01*
X025462Y039471D01*
X024829Y039425D01*
X024195Y039370D01*
X023563Y039314D01*
X022931Y039250D01*
X022300Y039186D01*
X021669Y039103D01*
X021040Y039020D01*
X020412Y038927D01*
X019785Y038824D01*
X019159Y038709D01*
X018535Y038591D01*
X017912Y038465D01*
X017292Y038330D01*
X016674Y038184D01*
X016058Y038027D01*
X015445Y037860D01*
X014835Y037682D01*
X014228Y037494D01*
X013625Y037294D01*
X013027Y037081D01*
X012433Y036856D01*
X011845Y036617D01*
X011262Y036364D01*
X010685Y036097D01*
X010116Y035816D01*
X009555Y035517D01*
X009002Y035205D01*
X008459Y034876D01*
X007926Y034529D01*
X007405Y034167D01*
X006895Y033787D01*
X006399Y033390D01*
X005918Y032976D01*
X005452Y032545D01*
X005002Y032096D01*
X004569Y031631D01*
X004155Y031149D01*
X003760Y030652D01*
X003385Y030139D01*
X003030Y029613D01*
X002696Y029072D01*
X002384Y028518D01*
X002093Y027953D01*
X001824Y027378D01*
X001576Y026793D01*
X001349Y026200D01*
X001144Y025598D01*
X000959Y024991D01*
X000794Y024378D01*
X000648Y023760D01*
X000522Y023138D01*
X000414Y022512D01*
X000323Y021884D01*
X000249Y021252D01*
X000192Y020620D01*
X000150Y019986D01*
X000150Y019804D01*
X000192Y019171D01*
X000249Y018538D01*
X000323Y017907D01*
X000414Y017278D01*
X000522Y016652D01*
X000649Y016030D01*
X000794Y015412D01*
X000959Y014799D01*
X001144Y014191D01*
X001349Y013589D01*
X001576Y012996D01*
X001823Y012411D01*
X002093Y011836D01*
X002384Y011271D01*
X002696Y010717D01*
X003030Y010176D01*
X003384Y009650D01*
X003759Y009137D01*
X004154Y008640D01*
X004568Y008158D01*
X005001Y007692D01*
X005450Y007243D01*
X005916Y006813D01*
X006398Y006398D01*
X006893Y006001D01*
X007403Y005620D01*
X007924Y005257D01*
X008457Y004910D01*
X009000Y004581D01*
X009553Y004267D01*
X010114Y003969D01*
X010683Y003687D01*
X011260Y003420D01*
X011842Y003167D01*
X012431Y002927D01*
X013025Y002701D01*
X013623Y002489D01*
X014226Y002287D01*
X014833Y002098D01*
X015443Y001921D01*
X016056Y001754D01*
X016672Y001598D01*
X017290Y001452D01*
X017911Y001316D01*
X018533Y001189D01*
X019157Y001070D01*
X019783Y000955D01*
X020410Y000852D01*
X021039Y000759D01*
X021668Y000676D01*
X022299Y000593D01*
X022930Y000529D01*
X023562Y000465D01*
X024195Y000409D01*
X024828Y000354D01*
X025462Y000308D01*
X026096Y000262D01*
X026730Y000225D01*
X027365Y000189D01*
X028000Y000170D01*
X028635Y000152D01*
X029265Y000150D01*
X029894Y000159D01*
X030524Y000196D01*
X031152Y000242D01*
X031779Y000297D01*
X032405Y000380D01*
X033027Y000473D01*
X033647Y000588D01*
X034264Y000718D01*
X034876Y000867D01*
X035484Y001034D01*
X036086Y001220D01*
X036681Y001426D01*
X037270Y001651D01*
X037850Y001897D01*
X038422Y002162D01*
X038984Y002447D01*
X039535Y002753D01*
X040074Y003077D01*
X040601Y003423D01*
X041114Y003790D01*
X041613Y004175D01*
X042096Y004579D01*
X042563Y005000D01*
X043014Y005441D01*
X043447Y005899D01*
X043862Y006373D01*
X044258Y006862D01*
X044635Y007366D01*
X044994Y007884D01*
X045333Y008416D01*
X045653Y008959D01*
X045953Y009513D01*
X046235Y010077D01*
X046497Y010650D01*
X046741Y011230D01*
X046967Y011818D01*
X047174Y012413D01*
X047365Y013013D01*
X047538Y013618D01*
X047695Y014228D01*
X047836Y014841D01*
X047962Y015459D01*
X048072Y016078D01*
X048168Y016701D01*
X048250Y017325D01*
X048319Y017952D01*
X048375Y018580D01*
X048419Y019210D01*
X048450Y019838D01*
X048450Y019941D01*
X048419Y020570D01*
X048375Y021199D01*
X048319Y021827D01*
X048250Y022454D01*
X048168Y023078D01*
X048072Y023700D01*
X047962Y024319D01*
X047836Y024937D01*
X047695Y025550D01*
X047538Y026161D01*
X047365Y026767D01*
X047174Y027366D01*
X046967Y027961D01*
X046741Y028549D01*
X046497Y029130D01*
X046235Y029703D01*
X045953Y030267D01*
X045653Y030821D01*
X045333Y031364D01*
X044994Y031896D01*
X044635Y032413D01*
X044258Y032917D01*
X043862Y033407D01*
X043447Y033881D01*
X043014Y034339D01*
X042563Y034780D01*
X042096Y035201D01*
X041613Y035605D01*
X041114Y035990D01*
X040601Y036357D01*
X040074Y036703D01*
X039535Y037028D01*
X038983Y037333D01*
X038422Y037618D01*
X037850Y037883D01*
X037270Y038129D01*
X036681Y038354D01*
X036086Y038560D01*
X035484Y038747D01*
X034876Y038913D01*
X034264Y039062D01*
X033648Y039192D01*
X033028Y039307D01*
X032405Y039400D01*
X031780Y039483D01*
X031152Y039538D01*
X030524Y039584D01*
X029895Y039621D01*
X029265Y039630D01*
X028635Y039628D01*
D11*
X004855Y025402D02*
X004857Y025452D01*
X004863Y025502D01*
X004873Y025551D01*
X004887Y025599D01*
X004904Y025646D01*
X004925Y025691D01*
X004950Y025735D01*
X004978Y025776D01*
X005010Y025815D01*
X005044Y025852D01*
X005081Y025886D01*
X005121Y025916D01*
X005163Y025943D01*
X005207Y025967D01*
X005253Y025988D01*
X005300Y026004D01*
X005348Y026017D01*
X005398Y026026D01*
X005447Y026031D01*
X005498Y026032D01*
X005548Y026029D01*
X005597Y026022D01*
X005646Y026011D01*
X005694Y025996D01*
X005740Y025978D01*
X005785Y025956D01*
X005828Y025930D01*
X005869Y025901D01*
X005908Y025869D01*
X005944Y025834D01*
X005976Y025796D01*
X006006Y025756D01*
X006033Y025713D01*
X006056Y025669D01*
X006075Y025623D01*
X006091Y025575D01*
X006103Y025526D01*
X006111Y025477D01*
X006115Y025427D01*
X006115Y025377D01*
X006111Y025327D01*
X006103Y025278D01*
X006091Y025229D01*
X006075Y025181D01*
X006056Y025135D01*
X006033Y025091D01*
X006006Y025048D01*
X005976Y025008D01*
X005944Y024970D01*
X005908Y024935D01*
X005869Y024903D01*
X005828Y024874D01*
X005785Y024848D01*
X005740Y024826D01*
X005694Y024808D01*
X005646Y024793D01*
X005597Y024782D01*
X005548Y024775D01*
X005498Y024772D01*
X005447Y024773D01*
X005398Y024778D01*
X005348Y024787D01*
X005300Y024800D01*
X005253Y024816D01*
X005207Y024837D01*
X005163Y024861D01*
X005121Y024888D01*
X005081Y024918D01*
X005044Y024952D01*
X005010Y024989D01*
X004978Y025028D01*
X004950Y025069D01*
X004925Y025113D01*
X004904Y025158D01*
X004887Y025205D01*
X004873Y025253D01*
X004863Y025302D01*
X004857Y025352D01*
X004855Y025402D01*
X004855Y014402D02*
X004857Y014452D01*
X004863Y014502D01*
X004873Y014551D01*
X004887Y014599D01*
X004904Y014646D01*
X004925Y014691D01*
X004950Y014735D01*
X004978Y014776D01*
X005010Y014815D01*
X005044Y014852D01*
X005081Y014886D01*
X005121Y014916D01*
X005163Y014943D01*
X005207Y014967D01*
X005253Y014988D01*
X005300Y015004D01*
X005348Y015017D01*
X005398Y015026D01*
X005447Y015031D01*
X005498Y015032D01*
X005548Y015029D01*
X005597Y015022D01*
X005646Y015011D01*
X005694Y014996D01*
X005740Y014978D01*
X005785Y014956D01*
X005828Y014930D01*
X005869Y014901D01*
X005908Y014869D01*
X005944Y014834D01*
X005976Y014796D01*
X006006Y014756D01*
X006033Y014713D01*
X006056Y014669D01*
X006075Y014623D01*
X006091Y014575D01*
X006103Y014526D01*
X006111Y014477D01*
X006115Y014427D01*
X006115Y014377D01*
X006111Y014327D01*
X006103Y014278D01*
X006091Y014229D01*
X006075Y014181D01*
X006056Y014135D01*
X006033Y014091D01*
X006006Y014048D01*
X005976Y014008D01*
X005944Y013970D01*
X005908Y013935D01*
X005869Y013903D01*
X005828Y013874D01*
X005785Y013848D01*
X005740Y013826D01*
X005694Y013808D01*
X005646Y013793D01*
X005597Y013782D01*
X005548Y013775D01*
X005498Y013772D01*
X005447Y013773D01*
X005398Y013778D01*
X005348Y013787D01*
X005300Y013800D01*
X005253Y013816D01*
X005207Y013837D01*
X005163Y013861D01*
X005121Y013888D01*
X005081Y013918D01*
X005044Y013952D01*
X005010Y013989D01*
X004978Y014028D01*
X004950Y014069D01*
X004925Y014113D01*
X004904Y014158D01*
X004887Y014205D01*
X004873Y014253D01*
X004863Y014302D01*
X004857Y014352D01*
X004855Y014402D01*
X046355Y019902D02*
X046357Y019952D01*
X046363Y020002D01*
X046373Y020051D01*
X046387Y020099D01*
X046404Y020146D01*
X046425Y020191D01*
X046450Y020235D01*
X046478Y020276D01*
X046510Y020315D01*
X046544Y020352D01*
X046581Y020386D01*
X046621Y020416D01*
X046663Y020443D01*
X046707Y020467D01*
X046753Y020488D01*
X046800Y020504D01*
X046848Y020517D01*
X046898Y020526D01*
X046947Y020531D01*
X046998Y020532D01*
X047048Y020529D01*
X047097Y020522D01*
X047146Y020511D01*
X047194Y020496D01*
X047240Y020478D01*
X047285Y020456D01*
X047328Y020430D01*
X047369Y020401D01*
X047408Y020369D01*
X047444Y020334D01*
X047476Y020296D01*
X047506Y020256D01*
X047533Y020213D01*
X047556Y020169D01*
X047575Y020123D01*
X047591Y020075D01*
X047603Y020026D01*
X047611Y019977D01*
X047615Y019927D01*
X047615Y019877D01*
X047611Y019827D01*
X047603Y019778D01*
X047591Y019729D01*
X047575Y019681D01*
X047556Y019635D01*
X047533Y019591D01*
X047506Y019548D01*
X047476Y019508D01*
X047444Y019470D01*
X047408Y019435D01*
X047369Y019403D01*
X047328Y019374D01*
X047285Y019348D01*
X047240Y019326D01*
X047194Y019308D01*
X047146Y019293D01*
X047097Y019282D01*
X047048Y019275D01*
X046998Y019272D01*
X046947Y019273D01*
X046898Y019278D01*
X046848Y019287D01*
X046800Y019300D01*
X046753Y019316D01*
X046707Y019337D01*
X046663Y019361D01*
X046621Y019388D01*
X046581Y019418D01*
X046544Y019452D01*
X046510Y019489D01*
X046478Y019528D01*
X046450Y019569D01*
X046425Y019613D01*
X046404Y019658D01*
X046387Y019705D01*
X046373Y019753D01*
X046363Y019802D01*
X046357Y019852D01*
X046355Y019902D01*
X032355Y002402D02*
X032357Y002452D01*
X032363Y002502D01*
X032373Y002551D01*
X032387Y002599D01*
X032404Y002646D01*
X032425Y002691D01*
X032450Y002735D01*
X032478Y002776D01*
X032510Y002815D01*
X032544Y002852D01*
X032581Y002886D01*
X032621Y002916D01*
X032663Y002943D01*
X032707Y002967D01*
X032753Y002988D01*
X032800Y003004D01*
X032848Y003017D01*
X032898Y003026D01*
X032947Y003031D01*
X032998Y003032D01*
X033048Y003029D01*
X033097Y003022D01*
X033146Y003011D01*
X033194Y002996D01*
X033240Y002978D01*
X033285Y002956D01*
X033328Y002930D01*
X033369Y002901D01*
X033408Y002869D01*
X033444Y002834D01*
X033476Y002796D01*
X033506Y002756D01*
X033533Y002713D01*
X033556Y002669D01*
X033575Y002623D01*
X033591Y002575D01*
X033603Y002526D01*
X033611Y002477D01*
X033615Y002427D01*
X033615Y002377D01*
X033611Y002327D01*
X033603Y002278D01*
X033591Y002229D01*
X033575Y002181D01*
X033556Y002135D01*
X033533Y002091D01*
X033506Y002048D01*
X033476Y002008D01*
X033444Y001970D01*
X033408Y001935D01*
X033369Y001903D01*
X033328Y001874D01*
X033285Y001848D01*
X033240Y001826D01*
X033194Y001808D01*
X033146Y001793D01*
X033097Y001782D01*
X033048Y001775D01*
X032998Y001772D01*
X032947Y001773D01*
X032898Y001778D01*
X032848Y001787D01*
X032800Y001800D01*
X032753Y001816D01*
X032707Y001837D01*
X032663Y001861D01*
X032621Y001888D01*
X032581Y001918D01*
X032544Y001952D01*
X032510Y001989D01*
X032478Y002028D01*
X032450Y002069D01*
X032425Y002113D01*
X032404Y002158D01*
X032387Y002205D01*
X032373Y002253D01*
X032363Y002302D01*
X032357Y002352D01*
X032355Y002402D01*
X032355Y037402D02*
X032357Y037452D01*
X032363Y037502D01*
X032373Y037551D01*
X032387Y037599D01*
X032404Y037646D01*
X032425Y037691D01*
X032450Y037735D01*
X032478Y037776D01*
X032510Y037815D01*
X032544Y037852D01*
X032581Y037886D01*
X032621Y037916D01*
X032663Y037943D01*
X032707Y037967D01*
X032753Y037988D01*
X032800Y038004D01*
X032848Y038017D01*
X032898Y038026D01*
X032947Y038031D01*
X032998Y038032D01*
X033048Y038029D01*
X033097Y038022D01*
X033146Y038011D01*
X033194Y037996D01*
X033240Y037978D01*
X033285Y037956D01*
X033328Y037930D01*
X033369Y037901D01*
X033408Y037869D01*
X033444Y037834D01*
X033476Y037796D01*
X033506Y037756D01*
X033533Y037713D01*
X033556Y037669D01*
X033575Y037623D01*
X033591Y037575D01*
X033603Y037526D01*
X033611Y037477D01*
X033615Y037427D01*
X033615Y037377D01*
X033611Y037327D01*
X033603Y037278D01*
X033591Y037229D01*
X033575Y037181D01*
X033556Y037135D01*
X033533Y037091D01*
X033506Y037048D01*
X033476Y037008D01*
X033444Y036970D01*
X033408Y036935D01*
X033369Y036903D01*
X033328Y036874D01*
X033285Y036848D01*
X033240Y036826D01*
X033194Y036808D01*
X033146Y036793D01*
X033097Y036782D01*
X033048Y036775D01*
X032998Y036772D01*
X032947Y036773D01*
X032898Y036778D01*
X032848Y036787D01*
X032800Y036800D01*
X032753Y036816D01*
X032707Y036837D01*
X032663Y036861D01*
X032621Y036888D01*
X032581Y036918D01*
X032544Y036952D01*
X032510Y036989D01*
X032478Y037028D01*
X032450Y037069D01*
X032425Y037113D01*
X032404Y037158D01*
X032387Y037205D01*
X032373Y037253D01*
X032363Y037302D01*
X032357Y037352D01*
X032355Y037402D01*
M02*
